<svg xmlns="http://www.w3.org/2000/svg" viewBox="0 0 32 32" width="32" height="32">
  <!-- Background circle -->
  <circle cx="16" cy="16" r="16" fill="#1E3A5F"/>
  <!-- Flame shape -->
  <path d="M16 4 C16 4 10 9 10 15 C10 18.3 12 20.5 14 21.5 C13.5 20 13.5 18.5 14.5 17.5 C14.5 17.5 15 20 16.5 21 C18 22 20 20 20 17.5 C20 16 19 14.5 18.5 13.5 C18.5 13.5 18 16 16.5 16.5 C16.5 16.5 19 14 16 4Z" fill="#F97316"/>
  <!-- Small inner glow -->
  <path d="M16 10 C16 10 13 13 13 16 C13 17.7 14.2 18.8 15 19.2 C14.8 18.5 15 17.5 15.5 17 C15.5 17 15.8 18.5 16.5 19 C17.2 19.5 18 18.5 18 17 C18 16 17.2 15 16.8 14.2 C16.8 14.2 16.5 15.5 15.8 15.8 C15.8 15.8 17 14 16 10Z" fill="#FED7AA" opacity="0.8"/>
</svg>
